
France 5 - C dans l'air - La France et l'affaire des fuites.avi

Format                           : AVI
Format/Info                      : Audio Video Interleave
File size                        : 1.71 GiB
Duration                         : 1h 5mn
Overall bit rate                 : 3 755 Kbps
Comment                          : Recorded & Uploaded By Carillon3

Video
ID                               : 0
Format                           : MPEG Video
Format version                   : Version 2
Format profile                   : Main@Main
Format settings, BVOP            : Yes
Format settings, Matrix          : Default
Format_Settings_GOP              : M=3, N=21
Codec ID                         : mpg2
Codec ID/Info                    : (MPEG-1/2) FFmpeg
Codec ID/Hint                    : Ffmpeg
Duration                         : 1h 5mn
Bit rate mode                    : Variable
Bit rate                         : 3 550 Kbps
Nominal bit rate                 : 15.0 Mbps
Width                            : 720 pixels
Height                           : 576 pixels
Display aspect ratio             : 16:9
Frame rate                       : 25.000 fps
Standard                         : PAL
Resolution                       : 8 bits
Colorimetry                      : 4:2:0
Scan type                        : Interlaced
Scan order                       : Top Field First
Bits/(Pixel*Frame)               : 0.342
Stream size                      : 1.62 GiB (95%)

Audio
ID                               : 1
Format                           : MPEG Audio
Format version                   : Version 1
Format profile                   : Layer 3
Mode                             : Joint stereo
Codec ID                         : 55
Codec ID/Hint                    : MP3
Duration                         : 1h 5mn
Bit rate mode                    : Constant
Bit rate                         : 192 Kbps
Channel(s)                       : 2 channels
Sampling rate                    : 48.0 KHz
Stream size                      : 89.7 MiB (5%)
Alignment                        : Aligned on interleaves
Interleave, duration             : 24 ms (0.60 video frame)
Interleave, preload duration     : 1008 ms
Language                         : French


Recorded & Uploaded by Carillon3
Download & seed
